<svg width="16" height="17" viewBox="0 0 16 17" fill="none" xmlns="http://www.w3.org/2000/svg">
    <path d="M5 2.71265H9.73333C11.2268 2.71265 11.9735 2.71265 12.544 3.0033C13.0457 3.25896 13.4537 3.66691 13.7094 4.16867C14 4.7391 14 5.48584 14 6.97931V11.7126M4.13333 14.7126H9.53333C10.2801 14.7126 10.6534 14.7126 10.9387 14.5673C11.1895 14.4395 11.3935 14.2355 11.5213 13.9846C11.6667 13.6994 11.6667 13.3261 11.6667 12.5793V7.17931C11.6667 6.43258 11.6667 6.05921 11.5213 5.77399C11.3935 5.52311 11.1895 5.31914 10.9387 5.1913C10.6534 5.04598 10.2801 5.04598 9.53333 5.04598H4.13333C3.3866 5.04598 3.01323 5.04598 2.72801 5.1913C2.47713 5.31914 2.27316 5.52311 2.14532 5.77399C2 6.05921 2 6.43258 2 7.17931V12.5793C2 13.3261 2 13.6994 2.14532 13.9846C2.27316 14.2355 2.47713 14.4395 2.72801 14.5673C3.01323 14.7126 3.3866 14.7126 4.13333 14.7126Z" stroke="#F5F5F6" stroke-linecap="round" stroke-linejoin="round"/>
    </svg>
    