<svg width="21" height="21" viewBox="0 0 21 21" fill="none" xmlns="http://www.w3.org/2000/svg">
    <g clip-path="url(#clip0_421_579)">
    <path fill-rule="evenodd" clip-rule="evenodd" d="M10.5001 1.12927C8.12614 1.1305 5.83001 1.97132 4.02229 3.50137C2.21457 5.03143 1.01315 7.15095 0.632852 9.48094C0.252553 11.8109 0.718171 14.1995 1.94646 16.2194C3.17474 18.2394 5.0856 19.7591 7.33734 20.5068C7.83411 20.599 8.02123 20.2911 8.02123 20.0293C8.02123 19.7675 8.01129 19.0084 8.00798 18.1786C5.22606 18.7796 4.63822 17.0047 4.63822 17.0047C4.1845 15.8521 3.52876 15.5492 3.52876 15.5492C2.62133 14.9334 3.59666 14.9449 3.59666 14.9449C4.60179 15.0157 5.13003 15.9707 5.13003 15.9707C6.0209 17.4904 7.46981 17.0508 8.03944 16.7939C8.12886 16.1502 8.38884 15.7122 8.67531 15.4636C6.45309 15.2133 4.11826 14.3604 4.11826 10.5505C4.10449 9.56236 4.47325 8.60682 5.14824 7.88151C5.04557 7.63124 4.7028 6.6203 5.24593 5.24713C5.24593 5.24713 6.08548 4.9804 7.9964 6.26631C9.63545 5.82063 11.3648 5.82063 13.0038 6.26631C14.9131 4.9804 15.751 5.24713 15.751 5.24713C16.2958 6.61701 15.953 7.62795 15.8503 7.88151C16.5275 8.60693 16.897 9.56415 16.882 10.5538C16.882 14.3719 14.5422 15.2133 12.3166 15.4586C12.6743 15.7682 12.9939 16.3724 12.9939 17.301C12.9939 18.6314 12.9823 19.7016 12.9823 20.0293C12.9823 20.2944 13.1628 20.6039 13.6695 20.5068C15.9215 19.759 17.8326 18.239 19.0608 16.2187C20.2891 14.1984 20.7545 11.8095 20.3737 9.47932C19.993 7.14911 18.791 5.02957 16.9827 3.49978C15.1744 1.96999 12.8777 1.12972 10.5034 1.12927H10.5001Z" fill="white"/>
    <path d="M7.18986 17.3587C7.18986 17.4393 7.09713 17.5085 6.97791 17.5101C6.85868 17.5118 6.76099 17.4459 6.76099 17.3653C6.76099 17.2846 6.85371 17.2154 6.97294 17.2138C7.09216 17.2121 7.18986 17.2763 7.18986 17.3587Z" fill="white"/>
    <path d="M7.95166 17.232C7.96656 17.3126 7.88377 17.3966 7.76454 17.4164C7.64532 17.4361 7.541 17.3884 7.52609 17.3093C7.51119 17.2303 7.5973 17.1447 7.71321 17.1233C7.82912 17.1019 7.93676 17.1513 7.95166 17.232Z" fill="white"/>
    <path d="M6.37173 17.3027C6.34689 17.3801 6.23429 17.4147 6.12169 17.3818C6.00909 17.3488 5.93457 17.2566 5.9561 17.1776C5.97762 17.0986 6.09188 17.0623 6.20614 17.0986C6.3204 17.1348 6.39326 17.222 6.37173 17.3027Z" fill="white"/>
    <path d="M5.62168 16.98C5.56704 17.0409 5.45609 17.0245 5.36502 16.9421C5.27394 16.8598 5.25241 16.7479 5.30706 16.6886C5.3617 16.6293 5.47265 16.6458 5.56703 16.7265C5.66142 16.8071 5.67964 16.9207 5.62168 16.98Z" fill="white"/>
    <path d="M5.08697 16.4268C5.0257 16.4696 4.92138 16.4268 4.86342 16.3412C4.84739 16.3259 4.83465 16.3074 4.82594 16.2871C4.81724 16.2667 4.81274 16.2448 4.81274 16.2227C4.81274 16.2005 4.81724 16.1786 4.82594 16.1583C4.83465 16.1379 4.84739 16.1195 4.86342 16.1041C4.92469 16.063 5.02902 16.1041 5.08697 16.1881C5.14493 16.2721 5.14659 16.384 5.08697 16.4268Z" fill="white"/>
    <path d="M4.69285 15.8554C4.65856 15.8726 4.61933 15.8774 4.58187 15.869C4.54441 15.8606 4.51106 15.8395 4.48752 15.8093C4.42294 15.7402 4.40969 15.6447 4.45937 15.6019C4.50904 15.5591 4.59847 15.5788 4.66305 15.648C4.72763 15.7171 4.74253 15.8126 4.69285 15.8554Z" fill="white"/>
    <path d="M4.28705 15.4059C4.26552 15.4553 4.18604 15.4701 4.12146 15.4356C4.05688 15.401 4.00886 15.3368 4.03205 15.2857C4.05523 15.2347 4.13306 15.2215 4.19764 15.2561C4.26222 15.2907 4.31189 15.3565 4.28705 15.4059Z" fill="white"/>
    </g>
    <defs>
    <clipPath id="clip0_421_579">
    <rect width="20" height="20" fill="white" transform="translate(0.5 0.712646)"/>
    </clipPath>
    </defs>
    </svg>
    